<?xml version="1.0" encoding="utf-8"?>
<!-- Generator: Adobe Illustrator 23.0.0, SVG Export Plug-In . SVG Version: 6.00 Build 0)  -->
<svg version="1.1" xmlns="http://www.w3.org/2000/svg" xmlns:xlink="http://www.w3.org/1999/xlink" x="0px" y="0px"
	 viewBox="0 0 300 300" style="enable-background:new 0 0 300 300;" xml:space="preserve">
<style type="text/css">
	.st0{display:none;}
	.st1{display:inline;}
	.st2{fill:#101734;}
	.st3{fill:#3E3E9B;}
	.st4{fill:#1074A0;}
	.st5{fill:url(#SVGID_1_);}
	.st6{fill:#A8BCC1;}
	.st7{fill:#B3D7DD;}
</style>
<g id="base" class="st0">
	<g class="st1">
		<rect class="st2" width="300" height="300"/>
	</g>
</g>
<g id="Layer_2">
	<path class="st3" d="M53.29,74.8c48-17.45,95.99-34.91,143.99-52.36c3.26-1.19,6.72,1.23,6.72,4.7v98.93
		C152.67,148.38,101.33,170.69,50,193V79.51C50,77.4,51.32,75.52,53.29,74.8z"/>
	<path class="st4" d="M57.63,78.55l136.02-49.46c2.6-0.95,5.35,0.98,5.35,3.75v87.35c0,1.59-0.94,3.02-2.4,3.66L60.58,182.95
		c-2.63,1.14-5.58-0.79-5.58-3.66v-97C55,80.62,56.05,79.12,57.63,78.55z"/>
</g>
<g id="Layer_3">
	<linearGradient id="SVGID_1_" gradientUnits="userSpaceOnUse" x1="152" y1="161.0267" x2="152" y2="28.5914">
		<stop  offset="2.494225e-07" style="stop-color:#006E8C"/>
		<stop  offset="1" style="stop-color:#FFFFFF"/>
	</linearGradient>
	<path class="st5" d="M105,157.27V63.63c0-1.58,0.99-2.99,2.48-3.53c28.83-10.43,57.67-20.86,86.5-31.29
		c2.45-0.88,5.03,0.93,5.03,3.53v87.2c0,1.49-0.88,2.84-2.25,3.44c-28.83,12.58-57.67,25.15-86.5,37.73
		C107.77,161.79,105,159.97,105,157.27z"/>
</g>
<g id="Layer_4">
	<path class="st6" d="M50,193l63.49,80.8c1.46,1.86,4.03,2.44,6.16,1.39L266.95,202c3.01-1.49,3.72-5.47,1.41-7.91
		C246.91,171.39,225.45,148.7,204,126C152.67,148.33,101.33,170.67,50,193z"/>
	<path class="st7" d="M63.67,192.51l136-59.17c1.87-0.81,4.04-0.37,5.44,1.11l55.14,58.34c2.23,2.36,1.54,6.2-1.36,7.64
		l-137.95,68.54c-2.05,1.02-4.53,0.46-5.95-1.34l-53.2-67.7C59.84,197.43,60.77,193.77,63.67,192.51z"/>
	<path class="st6" d="M81.66,197.51c38.79-17.07,77.58-34.14,116.38-51.21c1.79-0.79,3.87-0.39,5.25,0.99l14.94,14.94
		c2.32,2.32,1.63,6.24-1.34,7.63c-38.84,18.19-77.69,36.38-116.53,54.57c-1.97,0.92-4.32,0.38-5.69-1.31
		c-4.93-6.1-9.86-12.2-14.78-18.3C77.93,202.39,78.81,198.76,81.66,197.51z"/>
	<path class="st6" d="M160.47,219.77c9.4-4.7,18.8-9.4,28.2-14.1c0.79-0.4,1.75-0.24,2.38,0.39l11.9,11.9c1,1,0.72,2.69-0.56,3.31
		c-9.68,4.69-19.35,9.38-29.03,14.07c-0.81,0.39-1.79,0.21-2.41-0.45c-3.69-3.96-7.39-7.91-11.08-11.87
		C158.94,222.01,159.24,220.38,160.47,219.77z"/>
</g>
</svg>
