<?xml version="1.0" encoding="utf-8"?>
<!-- Generator: Adobe Illustrator 23.0.0, SVG Export Plug-In . SVG Version: 6.00 Build 0)  -->
<svg version="1.1" xmlns="http://www.w3.org/2000/svg" xmlns:xlink="http://www.w3.org/1999/xlink" x="0px" y="0px"
	 viewBox="0 0 56 122" style="enable-background:new 0 0 56 122;" xml:space="preserve">
<style type="text/css">
	.st0{display:none;}
	.st1{display:inline;}
	.st2{fill:#1B1464;}
	.st3{fill:#D2D5E8;}
	.st4{fill:#292C6B;}
</style>
<g id="Layer_1" class="st0">
	<g class="st1">
		<rect class="st2" width="56" height="122"/>
	</g>
</g>
<g id="Layer_2">
</g>
<g id="Layer_3">
	<path class="st3" d="M29.46,0.5C13.05,0,2.41,9.91,0.5,11.76c2.41,0,4.83,0,7.24,0l0.78,90.87c0.01,1.47,0.91,2.79,2.28,3.34
		c11.45,4.58,22.91,9.16,34.36,13.75c1.72,0.69,3.59-0.58,3.59-2.43V11.76c2.41,0,4.83,0,7.24,0C53.82,9.64,44.33,0.94,29.46,0.5z"
		/>
	<g>
		<g>
			<path class="st4" d="M22,22.6h14.55v5.18c0,1.13-0.21,2.07-0.62,2.81c-0.41,0.74-0.97,1.3-1.69,1.67
				c-0.71,0.37-1.51,0.55-2.4,0.55c-0.9,0-1.7-0.19-2.41-0.56c-0.71-0.37-1.28-0.93-1.69-1.68c-0.41-0.75-0.62-1.68-0.62-2.81v-3.56
				h1.86v3.37c0,0.71,0.12,1.29,0.37,1.74c0.25,0.44,0.59,0.77,1.02,0.98s0.92,0.31,1.47,0.31c0.55,0,1.04-0.1,1.46-0.31
				s0.76-0.54,1-0.98c0.24-0.45,0.36-1.04,0.36-1.76V24.8H22V22.6z"/>
			<path class="st4" d="M21.78,40.54c0-1.02,0.23-1.92,0.7-2.68s1.12-1.35,1.97-1.78c0.84-0.42,1.83-0.63,2.95-0.63
				c1.13,0,2.12,0.21,2.97,0.63c0.85,0.42,1.5,1.01,1.97,1.78s0.7,1.65,0.7,2.68c0,1.02-0.23,1.92-0.7,2.68s-1.13,1.35-1.97,1.78
				c-0.85,0.42-1.84,0.63-2.97,0.63c-1.13,0-2.11-0.21-2.95-0.63c-0.84-0.42-1.5-1.01-1.97-1.78S21.78,41.56,21.78,40.54z
				 M23.56,40.55c0,0.66,0.18,1.21,0.53,1.65c0.35,0.44,0.82,0.76,1.4,0.97s1.22,0.32,1.92,0.32c0.7,0,1.34-0.11,1.92-0.32
				s1.05-0.53,1.41-0.97c0.35-0.44,0.53-0.98,0.53-1.65c0-0.67-0.18-1.22-0.53-1.66c-0.36-0.44-0.83-0.76-1.41-0.97
				c-0.58-0.21-1.23-0.32-1.92-0.32c-0.7,0-1.34,0.1-1.92,0.32c-0.58,0.21-1.05,0.54-1.4,0.97C23.74,39.33,23.56,39.88,23.56,40.55z
				"/>
			<path class="st4" d="M17.91,48.95h15v2.07h-1.77v0.18c0.23,0.12,0.49,0.3,0.79,0.53c0.3,0.23,0.56,0.55,0.79,0.97
				c0.22,0.41,0.34,0.96,0.34,1.63c0,0.88-0.22,1.67-0.67,2.36c-0.45,0.69-1.09,1.23-1.92,1.63c-0.84,0.4-1.85,0.59-3.03,0.59
				c-1.18,0-2.19-0.2-3.03-0.59c-0.84-0.39-1.49-0.93-1.94-1.62s-0.68-1.47-0.68-2.35c0-0.66,0.11-1.2,0.33-1.62
				c0.22-0.42,0.48-0.75,0.78-0.98c0.3-0.24,0.56-0.42,0.8-0.55v-0.13h-5.79V48.95z M27.45,51.03c-0.77,0-1.44,0.11-2.02,0.33
				s-1.03,0.54-1.35,0.97s-0.49,0.94-0.49,1.55c0,0.63,0.17,1.17,0.51,1.59c0.34,0.43,0.8,0.75,1.38,0.97s1.24,0.33,1.97,0.33
				c0.72,0,1.37-0.11,1.94-0.32c0.57-0.22,1.03-0.54,1.36-0.97s0.5-0.96,0.5-1.6c0-0.62-0.16-1.14-0.48-1.56
				c-0.32-0.42-0.76-0.74-1.33-0.96C28.88,51.14,28.21,51.03,27.45,51.03z"/>
			<path class="st4" d="M26.52,69.12h6.39v2.13H22v-2.09h1.89v-0.11c-0.58-0.25-1.07-0.65-1.45-1.2c-0.39-0.55-0.58-1.24-0.58-2.06
				c0-0.7,0.16-1.32,0.47-1.86c0.31-0.54,0.77-0.96,1.38-1.26c0.61-0.31,1.37-0.46,2.27-0.46h6.94v2.12h-6.68
				c-0.74,0-1.34,0.21-1.78,0.62c-0.44,0.41-0.66,0.95-0.66,1.6c0,0.4,0.1,0.79,0.3,1.19c0.2,0.4,0.5,0.72,0.9,0.99
				C25.39,69,25.9,69.12,26.52,69.12z"/>
			<path class="st4" d="M36.55,77.21H22v-2.12h14.55V77.21z"/>
			<path class="st4" d="M21.76,84.2c0-0.69,0.13-1.32,0.39-1.88c0.26-0.56,0.63-1,1.13-1.32c0.49-0.32,1.1-0.49,1.81-0.49
				c0.62,0,1.12,0.12,1.52,0.36c0.4,0.24,0.71,0.56,0.94,0.96s0.41,0.85,0.53,1.35c0.12,0.5,0.21,1,0.27,1.52
				c0.08,0.65,0.14,1.18,0.19,1.59c0.05,0.41,0.13,0.7,0.24,0.89c0.11,0.18,0.3,0.28,0.55,0.28h0.05c0.62,0,1.1-0.17,1.44-0.52
				s0.51-0.87,0.51-1.55c0-0.71-0.16-1.28-0.47-1.69c-0.32-0.41-0.66-0.69-1.05-0.85l0.45-2c0.66,0.24,1.2,0.58,1.61,1.04
				c0.41,0.46,0.71,0.98,0.89,1.58c0.19,0.6,0.28,1.22,0.28,1.88c0,0.44-0.05,0.9-0.15,1.39s-0.29,0.95-0.56,1.38
				c-0.27,0.43-0.65,0.78-1.15,1.05c-0.5,0.27-1.15,0.41-1.94,0.41H22v-2.07h1.49v-0.08c-0.27-0.14-0.54-0.34-0.81-0.62
				s-0.49-0.63-0.66-1.06C21.85,85.32,21.76,84.8,21.76,84.2z M23.46,84.66c0,0.59,0.12,1.09,0.35,1.51s0.54,0.74,0.91,0.96
				c0.38,0.22,0.78,0.33,1.21,0.33h1.41c-0.08-0.08-0.15-0.22-0.21-0.44c-0.06-0.22-0.12-0.46-0.16-0.74
				c-0.05-0.27-0.09-0.54-0.12-0.8c-0.04-0.26-0.06-0.48-0.09-0.65c-0.05-0.41-0.14-0.79-0.26-1.13c-0.12-0.34-0.3-0.61-0.53-0.81
				c-0.23-0.2-0.53-0.3-0.91-0.3c-0.53,0-0.92,0.19-1.19,0.58C23.6,83.56,23.46,84.06,23.46,84.66z"/>
			<path class="st4" d="M22,93.39h10.91v2.05h-1.73v0.11c0.59,0.2,1.05,0.55,1.39,1.05s0.51,1.08,0.51,1.71c0,0.13,0,0.29-0.01,0.47
				c-0.01,0.18-0.02,0.33-0.04,0.43h-2.03c0.02-0.08,0.05-0.24,0.08-0.45c0.03-0.22,0.05-0.44,0.05-0.65c0-0.5-0.11-0.95-0.32-1.34
				c-0.21-0.39-0.5-0.7-0.87-0.93c-0.37-0.23-0.79-0.34-1.27-0.34H22V93.39z"/>
		</g>
	</g>
</g>
</svg>
