<svg width="0" height="0" class="hidden">
  <symbol xmlns="http://www.w3.org/2000/svg" viewBox="0 0 129 129" id="bar-graph">
    <path d="M118.4 114.4H14.6V10.6c0-2.3-1.8-4.1-4.1-4.1s-4.1 1.8-4.1 4.1v107.9c0 2.3 1.8 4.1 4.1 4.1h107.9c2.3 0 4.1-1.8 4.1-4.1s-1.8-4.1-4.1-4.1z"></path>
    <path d="M54.3 98.6v-59c0-2.3-1.8-4.1-4.1-4.1s-4.1 1.8-4.1 4.1v59c0 2.3 1.8 4.1 4.1 4.1s4.1-1.8 4.1-4.1zm-19.8 0v-59c0-2.3-1.8-4.1-4.1-4.1s-4.1 1.8-4.1 4.1v59c0 2.3 1.8 4.1 4.1 4.1s4.1-1.8 4.1-4.1zm59.4 0v-59c0-2.3-1.8-4.1-4.1-4.1s-4.1 1.8-4.1 4.1v59c0 2.3 1.8 4.1 4.1 4.1s4.1-1.8 4.1-4.1zm19.8 0V69.1c0-2.3-1.8-4.1-4.1-4.1s-4.1 1.8-4.1 4.1v29.5c0 2.3 1.8 4.1 4.1 4.1s4.1-1.8 4.1-4.1zm-39.6 0V69.1c0-2.3-1.8-4.1-4.1-4.1s-4.1 1.8-4.1 4.1v29.5c0 2.3 1.8 4.1 4.1 4.1s4.1-1.8 4.1-4.1z"></path>
  </symbol>
  <symbol xmlns="http://www.w3.org/2000/svg" viewBox="0 0 49.87 49.88" id="search">
    <title>Search</title>
    <path d="M49.14 45.61L38.58 35.05a2.77 2.77 0 00-3.91 0 17.49 17.49 0 114.92-16.35 17.7 17.7 0 01-.18 8.3 2.5 2.5 0 104.84 1.29 22.54 22.54 0 10-7.72 11.82l9.07 9.06a2.5 2.5 0 003.54 0 2.5 2.5 0 000-3.56z" fill="#e3e5f1"></path>
    <path d="M30 30a2.46 2.46 0 00-3-.27 8.52 8.52 0 01-8.66.17 2.41 2.41 0 00-2.87.33l-.15.14a2.41 2.41 0 00.42 3.81 13.55 13.55 0 0014-.28 2.41 2.41 0 00.41-3.74z" fill="#7c80a4"></path>
  </symbol>
</svg>