<svg width="0" height="0" class="hidden">
  <symbol xmlns="http://www.w3.org/2000/svg" viewBox="0 0 129 129" id="bar-graph">
    <path d="M118.4 114.4H14.6V10.6c0-2.3-1.8-4.1-4.1-4.1s-4.1 1.8-4.1 4.1v107.9c0 2.3 1.8 4.1 4.1 4.1h107.9c2.3 0 4.1-1.8 4.1-4.1s-1.8-4.1-4.1-4.1z"></path>
    <path d="M54.3 98.6v-59c0-2.3-1.8-4.1-4.1-4.1s-4.1 1.8-4.1 4.1v59c0 2.3 1.8 4.1 4.1 4.1s4.1-1.8 4.1-4.1zm-19.8 0v-59c0-2.3-1.8-4.1-4.1-4.1s-4.1 1.8-4.1 4.1v59c0 2.3 1.8 4.1 4.1 4.1s4.1-1.8 4.1-4.1zm59.4 0v-59c0-2.3-1.8-4.1-4.1-4.1s-4.1 1.8-4.1 4.1v59c0 2.3 1.8 4.1 4.1 4.1s4.1-1.8 4.1-4.1zm19.8 0V69.1c0-2.3-1.8-4.1-4.1-4.1s-4.1 1.8-4.1 4.1v29.5c0 2.3 1.8 4.1 4.1 4.1s4.1-1.8 4.1-4.1zm-39.6 0V69.1c0-2.3-1.8-4.1-4.1-4.1s-4.1 1.8-4.1 4.1v29.5c0 2.3 1.8 4.1 4.1 4.1s4.1-1.8 4.1-4.1z"></path>
  </symbol>
  <symbol xmlns="http://www.w3.org/2000/svg" viewBox="0 0 49.87 49.88" id="search">
    <title>Search</title>
    <path d="M49.14 45.61L38.58 35.05a2.77 2.77 0 00-3.91 0 17.49 17.49 0 114.92-16.35 17.7 17.7 0 01-.18 8.3 2.5 2.5 0 104.84 1.29 22.54 22.54 0 10-7.72 11.82l9.07 9.06a2.5 2.5 0 003.54 0 2.5 2.5 0 000-3.56z" fill="#e3e5f1"></path>
    <path d="M30 30a2.46 2.46 0 00-3-.27 8.52 8.52 0 01-8.66.17 2.41 2.41 0 00-2.87.33l-.15.14a2.41 2.41 0 00.42 3.81 13.55 13.55 0 0014-.28 2.41 2.41 0 00.41-3.74z" fill="#7c80a4"></path>
  </symbol>
  <symbol xmlns="http://www.w3.org/2000/svg" viewBox="0 0 300 300" id="laptop">
    <path d="M53.29 74.8c48-17.45 95.99-34.91 143.99-52.36 3.26-1.19 6.72 1.23 6.72 4.7v98.93C152.67 148.38 101.33 170.69 50 193V79.51c0-2.11 1.32-3.99 3.29-4.71z" fill="#3e3e9b"></path>
    <path d="M57.63 78.55l136.02-49.46c2.6-.95 5.35.98 5.35 3.75v87.35c0 1.59-.94 3.02-2.4 3.66l-136.02 59.1c-2.63 1.14-5.58-.79-5.58-3.66v-97a3.98 3.98 0 012.63-3.74z" fill="#1074a0"></path>
    <linearGradient id="a" gradientUnits="userSpaceOnUse" x1="152" y1="161.027" x2="152" y2="28.591">
      <stop offset="0" stop-color="#006e8c"></stop>
      <stop offset="1" stop-color="#fff"></stop>
    </linearGradient>
    <path d="M105 157.27V63.63c0-1.58.99-2.99 2.48-3.53 28.83-10.43 57.67-20.86 86.5-31.29 2.45-.88 5.03.93 5.03 3.53v87.2c0 1.49-.88 2.84-2.25 3.44-28.83 12.58-57.67 25.15-86.5 37.73-2.49 1.08-5.26-.74-5.26-3.44z" fill="url(#a)"></path>
    <path d="M50 193l63.49 80.8a5.011 5.011 0 006.16 1.39L266.95 202c3.01-1.49 3.72-5.47 1.41-7.91-21.45-22.7-42.91-45.39-64.36-68.09-51.33 22.33-102.67 44.67-154 67z"></path>
    <path d="M63.67 192.51l136-59.17c1.87-.81 4.04-.37 5.44 1.11l55.14 58.34c2.23 2.36 1.54 6.2-1.36 7.64l-137.95 68.54a4.833 4.833 0 01-5.95-1.34l-53.2-67.7c-1.95-2.5-1.02-6.16 1.88-7.42z" fill="#b3d7dd"></path>
    <path d="M81.66 197.51c38.79-17.07 77.58-34.14 116.38-51.21 1.79-.79 3.87-.39 5.25.99l14.94 14.94c2.32 2.32 1.63 6.24-1.34 7.63-38.84 18.19-77.69 36.38-116.53 54.57-1.97.92-4.32.38-5.69-1.31-4.93-6.1-9.86-12.2-14.78-18.3-1.96-2.43-1.08-6.06 1.77-7.31zm78.81 22.26l28.2-14.1c.79-.4 1.75-.24 2.38.39l11.9 11.9c1 1 .72 2.69-.56 3.31-9.68 4.69-19.35 9.38-29.03 14.07-.81.39-1.79.21-2.41-.45-3.69-3.96-7.39-7.91-11.08-11.87a2.07 2.07 0 01.6-3.25z"></path>
  </symbol>
  <symbol xmlns="http://www.w3.org/2000/svg" viewBox="0 0 512 512" id="quote">
    <title>quote</title>
    <path d="M512 256c0 141.38-114.61 256-256 256S0 397.39 0 256 114.62 0 256 0s256 114.62 256 256z" fill="#7c80a4"></path>
    <path d="M28 139.52L139.52 28A257.1 257.1 0 0028 139.52zM179.06 11.77L11.77 179.06a254.14 254.14 0 00-6.43 24.69L203.75 5.34a253.94 253.94 0 00-24.69 6.43zM231.24 1.2l-230 230q-.97 9.64-1.17 19.44L250.63.07q-9.79.2-19.39 1.13zm42.2-.6L.6 273.43q.56 8.39 1.66 16.63L290.05 2.26Q281.83 1.17 273.44.6zm36.5 5.11L5.71 309.95q1.59 7.41 3.6 14.66L324.6 9.31q-7.25-2.01-14.66-3.6zm32.38 9.22L14.94 342.33Q17.32 349 20 355.47L355.46 20q-6.46-2.69-13.14-5.07zm29.09 12.51l-344 344q3 6 6.39 11.86L383.28 33.83q-5.84-3.35-11.87-6.39zm26.28 15.33L42.77 397.69q3.63 5.46 7.53 10.72l358.12-358.1q-5.26-3.91-10.73-7.54zm23.74 17.87L60.65 421.43q4.18 4.93 8.6 9.65L431.08 69.25q-4.72-4.43-9.65-8.61zm21.32 20.27L80.92 442.75q4.72 4.42 9.65 8.6l360.8-360.77q-4.19-4.94-8.62-9.67zm18.94 22.67L103.58 461.69q5.26 3.91 10.73 7.54l354.92-354.92q-3.64-5.46-7.54-10.73zm16.48 25.14L128.71 478.16q5.84 3.35 11.88 6.4l344-344q-3.08-6-6.42-11.84zM492 156.53L156.53 492q6.48 2.73 13.14 5.11l327.39-327.44q-2.38-6.67-5.06-13.14zm10.69 30.88L187.4 502.69q7.24 2 14.66 3.6l304.23-304.23q-1.59-7.41-3.6-14.65zm7.05 34.59l-287.8 287.74q8.23 1.09 16.62 1.66L511.4 238.56q-.57-8.38-1.66-16.56zm1.07 58.75q.92-9.59 1.13-19.38L261.37 511.93q9.79-.2 19.39-1.13zM332.92 500.23l167.31-167.31a254 254 0 006.42-24.68L308.23 506.66a254.22 254.22 0 0024.69-6.43zM484 372.49L372.48 484A257.12 257.12 0 00484 372.49z" fill="#7c80a4"></path>
    <path d="M196.39 243.88c8.29-29.56 35.31-61.25 35.31-61.25l-14-12.92c-87.4 50.8-77.91 125.84-77.91 125.84l.42-.14a49.34 49.34 0 1056.15-51.53zm173.68 33.58a49.28 49.28 0 00-40-33.58c8.3-29.56 35.31-61.25 35.31-61.25l-14-12.92c-87.4 50.8-77.92 125.84-77.92 125.84l.41-.14a49.36 49.36 0 1096.19-18z" fill="#fff"></path>
  </symbol>
</svg>