<svg width="0" height="0" class="hidden">
  <symbol xmlns="http://www.w3.org/2000/svg" viewBox="0 0 129 129" id="bar-graph">
    <path d="M118.4 114.4H14.6V10.6c0-2.3-1.8-4.1-4.1-4.1s-4.1 1.8-4.1 4.1v107.9c0 2.3 1.8 4.1 4.1 4.1h107.9c2.3 0 4.1-1.8 4.1-4.1s-1.8-4.1-4.1-4.1z"></path>
    <path d="M54.3 98.6v-59c0-2.3-1.8-4.1-4.1-4.1s-4.1 1.8-4.1 4.1v59c0 2.3 1.8 4.1 4.1 4.1s4.1-1.8 4.1-4.1zm-19.8 0v-59c0-2.3-1.8-4.1-4.1-4.1s-4.1 1.8-4.1 4.1v59c0 2.3 1.8 4.1 4.1 4.1s4.1-1.8 4.1-4.1zm59.4 0v-59c0-2.3-1.8-4.1-4.1-4.1s-4.1 1.8-4.1 4.1v59c0 2.3 1.8 4.1 4.1 4.1s4.1-1.8 4.1-4.1zm19.8 0V69.1c0-2.3-1.8-4.1-4.1-4.1s-4.1 1.8-4.1 4.1v29.5c0 2.3 1.8 4.1 4.1 4.1s4.1-1.8 4.1-4.1zm-39.6 0V69.1c0-2.3-1.8-4.1-4.1-4.1s-4.1 1.8-4.1 4.1v29.5c0 2.3 1.8 4.1 4.1 4.1s4.1-1.8 4.1-4.1z"></path>
  </symbol>
  <symbol xmlns="http://www.w3.org/2000/svg" viewBox="0 0 49.87 49.88" id="search">
    <title>Search</title>
    <path d="M49.14 45.61L38.58 35.05a2.77 2.77 0 00-3.91 0 17.49 17.49 0 114.92-16.35 17.7 17.7 0 01-.18 8.3 2.5 2.5 0 104.84 1.29 22.54 22.54 0 10-7.72 11.82l9.07 9.06a2.5 2.5 0 003.54 0 2.5 2.5 0 000-3.56z" fill="#e3e5f1"></path>
    <path d="M30 30a2.46 2.46 0 00-3-.27 8.52 8.52 0 01-8.66.17 2.41 2.41 0 00-2.87.33l-.15.14a2.41 2.41 0 00.42 3.81 13.55 13.55 0 0014-.28 2.41 2.41 0 00.41-3.74z" fill="#7c80a4"></path>
  </symbol>
  <symbol xmlns="http://www.w3.org/2000/svg" viewBox="0 0 300 300" id="laptop">
    <path d="M53.29 74.8c48-17.45 95.99-34.91 143.99-52.36 3.26-1.19 6.72 1.23 6.72 4.7v98.93C152.67 148.38 101.33 170.69 50 193V79.51c0-2.11 1.32-3.99 3.29-4.71z" fill="#3e3e9b"></path>
    <path d="M57.63 78.55l136.02-49.46c2.6-.95 5.35.98 5.35 3.75v87.35c0 1.59-.94 3.02-2.4 3.66l-136.02 59.1c-2.63 1.14-5.58-.79-5.58-3.66v-97a3.98 3.98 0 012.63-3.74z" fill="#1074a0"></path>
    <linearGradient id="a" gradientUnits="userSpaceOnUse" x1="152" y1="161.027" x2="152" y2="28.591">
      <stop offset="0" stop-color="#006e8c"></stop>
      <stop offset="1" stop-color="#fff"></stop>
    </linearGradient>
    <path d="M105 157.27V63.63c0-1.58.99-2.99 2.48-3.53 28.83-10.43 57.67-20.86 86.5-31.29 2.45-.88 5.03.93 5.03 3.53v87.2c0 1.49-.88 2.84-2.25 3.44-28.83 12.58-57.67 25.15-86.5 37.73-2.49 1.08-5.26-.74-5.26-3.44z" fill="url(#a)"></path>
    <path d="M50 193l63.49 80.8a5.011 5.011 0 006.16 1.39L266.95 202c3.01-1.49 3.72-5.47 1.41-7.91-21.45-22.7-42.91-45.39-64.36-68.09-51.33 22.33-102.67 44.67-154 67z"></path>
    <path d="M63.67 192.51l136-59.17c1.87-.81 4.04-.37 5.44 1.11l55.14 58.34c2.23 2.36 1.54 6.2-1.36 7.64l-137.95 68.54a4.833 4.833 0 01-5.95-1.34l-53.2-67.7c-1.95-2.5-1.02-6.16 1.88-7.42z" fill="#b3d7dd"></path>
    <path d="M81.66 197.51c38.79-17.07 77.58-34.14 116.38-51.21 1.79-.79 3.87-.39 5.25.99l14.94 14.94c2.32 2.32 1.63 6.24-1.34 7.63-38.84 18.19-77.69 36.38-116.53 54.57-1.97.92-4.32.38-5.69-1.31-4.93-6.1-9.86-12.2-14.78-18.3-1.96-2.43-1.08-6.06 1.77-7.31zm78.81 22.26l28.2-14.1c.79-.4 1.75-.24 2.38.39l11.9 11.9c1 1 .72 2.69-.56 3.31-9.68 4.69-19.35 9.38-29.03 14.07-.81.39-1.79.21-2.41-.45-3.69-3.96-7.39-7.91-11.08-11.87a2.07 2.07 0 01.6-3.25z"></path>
  </symbol>
  <symbol xmlns="http://www.w3.org/2000/svg" viewBox="0 0 512 512" id="quote">
    <title>quote</title>
    <path d="M512 256c0 141.38-114.61 256-256 256S0 397.39 0 256 114.62 0 256 0s256 114.62 256 256z" fill="#7c80a4"></path>
    <path d="M28 139.52L139.52 28A257.1 257.1 0 0028 139.52zM179.06 11.77L11.77 179.06a254.14 254.14 0 00-6.43 24.69L203.75 5.34a253.94 253.94 0 00-24.69 6.43zM231.24 1.2l-230 230q-.97 9.64-1.17 19.44L250.63.07q-9.79.2-19.39 1.13zm42.2-.6L.6 273.43q.56 8.39 1.66 16.63L290.05 2.26Q281.83 1.17 273.44.6zm36.5 5.11L5.71 309.95q1.59 7.41 3.6 14.66L324.6 9.31q-7.25-2.01-14.66-3.6zm32.38 9.22L14.94 342.33Q17.32 349 20 355.47L355.46 20q-6.46-2.69-13.14-5.07zm29.09 12.51l-344 344q3 6 6.39 11.86L383.28 33.83q-5.84-3.35-11.87-6.39zm26.28 15.33L42.77 397.69q3.63 5.46 7.53 10.72l358.12-358.1q-5.26-3.91-10.73-7.54zm23.74 17.87L60.65 421.43q4.18 4.93 8.6 9.65L431.08 69.25q-4.72-4.43-9.65-8.61zm21.32 20.27L80.92 442.75q4.72 4.42 9.65 8.6l360.8-360.77q-4.19-4.94-8.62-9.67zm18.94 22.67L103.58 461.69q5.26 3.91 10.73 7.54l354.92-354.92q-3.64-5.46-7.54-10.73zm16.48 25.14L128.71 478.16q5.84 3.35 11.88 6.4l344-344q-3.08-6-6.42-11.84zM492 156.53L156.53 492q6.48 2.73 13.14 5.11l327.39-327.44q-2.38-6.67-5.06-13.14zm10.69 30.88L187.4 502.69q7.24 2 14.66 3.6l304.23-304.23q-1.59-7.41-3.6-14.65zm7.05 34.59l-287.8 287.74q8.23 1.09 16.62 1.66L511.4 238.56q-.57-8.38-1.66-16.56zm1.07 58.75q.92-9.59 1.13-19.38L261.37 511.93q9.79-.2 19.39-1.13zM332.92 500.23l167.31-167.31a254 254 0 006.42-24.68L308.23 506.66a254.22 254.22 0 0024.69-6.43zM484 372.49L372.48 484A257.12 257.12 0 00484 372.49z" fill="#7c80a4"></path>
    <path d="M196.39 243.88c8.29-29.56 35.31-61.25 35.31-61.25l-14-12.92c-87.4 50.8-77.91 125.84-77.91 125.84l.42-.14a49.34 49.34 0 1056.15-51.53zm173.68 33.58a49.28 49.28 0 00-40-33.58c8.3-29.56 35.31-61.25 35.31-61.25l-14-12.92c-87.4 50.8-77.92 125.84-77.92 125.84l.41-.14a49.36 49.36 0 1096.19-18z" fill="#fff"></path>
  </symbol>
  <symbol xmlns="http://www.w3.org/2000/svg" viewBox="0 0 455 455" id="chevron">
    <path d="M227.5 0C101.855 0 0 101.855 0 227.5S101.855 455 227.5 455 455 353.145 455 227.5 353.145 0 227.5 0zm0 327.148L99.411 199.476l21.178-21.248L227.5 284.791l106.911-106.563 21.178 21.248L227.5 327.148z"></path>
  </symbol>
  <symbol xmlns="http://www.w3.org/2000/svg" stroke-width="2" stroke-linecap="round" stroke-linejoin="round" viewBox="0 0 24 24" id="menu">
    <path d="M3 12h18M3 6h18M3 18h18"></path>
  </symbol>
  <symbol xmlns="http://www.w3.org/2000/svg" preserveAspectRatio="xMidYMid" viewBox="0 0 256 120" id="logo-one">
    <path d="M255.868 26.32l-2.775-16.618C252.2 4.366 250.12 0 248.464 0c-1.656 0-3.01 4.425-3.01 9.834v4.344c0 5.41-4.433 9.834-9.854 9.834h-4.35c-.318 0-.63.013-.938.031v11.948c.308.015.62.027.937.027h16.383c5.42 0 9.127-4.363 8.236-9.698zM216.59 12.252h-26.567c-.222 0-.438.019-.654.034h-27.273c-.32 0-.632.03-.94.08V9.834c0-5.41-1.354-9.834-3.007-9.834-1.656 0-3.737 4.366-4.628 9.702l-2.775 16.618c-.891 5.332 2.815 9.698 8.233 9.698h16.385c1.687 0 3.281-.261 4.672-.723a6.011 6.011 0 01-5.908 4.899H151.15c-3.72 0-6.547-3.332-5.936-6.99l2.328-13.927c.61-3.662-2.217-6.99-5.933-6.99H27.26a6.013 6.013 0 00-5.477 3.525L.247 48.502a1.49 1.49 0 00.108 1.787l4.178 4.923c.524.616 1.44.708 2.072.21l14.638-11.527v69.942a6.009 6.009 0 006.015 6.003h32.463c3.324 0 6.016-2.69 6.016-6.003V89.514c0-3.317 2.695-6.003 6.016-6.003h81.043c3.321 0 6.016 2.686 6.016 6.003v24.323c0 3.314 2.692 6.003 6.016 6.003h32.463c3.32 0 6.016-2.69 6.016-6.003V87.662h-17.243c-5.418 0-9.852-4.428-9.852-9.834V60.994c0-3.203 1.56-6.052 3.956-7.85v20.09c0 5.41 4.434 9.834 9.855 9.834h26.567c5.421 0 9.855-4.425 9.855-9.834V22.086c0-5.41-4.434-9.834-9.855-9.834z"></path>
  </symbol>
  <symbol xmlns="http://www.w3.org/2000/svg" preserveAspectRatio="xMidYMid" viewBox="0 0 256 251" id="logo-two">
    <path d="M.439.438L219.3 232.266s7.457 5.259 13.158-.877c5.702-6.135 1.316-12.27 1.316-12.27L.44.439zM69.738 22.35l166.668 179.677s7.456 5.26 13.158-.876c5.702-6.135 1.316-12.27 1.316-12.27L69.738 22.35zM21.053 69.242L187.72 248.919s7.456 5.259 13.158-.877c5.702-6.135 1.316-12.27 1.316-12.27L21.053 69.242zM128.32 41.194l116.442 125.53s5.21 3.674 9.193-.612c3.983-4.287.919-8.573.919-8.573L128.321 41.194zm-91.228 82.389l116.441 125.53s5.21 3.674 9.193-.613c3.983-4.286.919-8.572.919-8.572L37.092 123.583zM188.16 68.365l52.775 57.067s2.577 1.722 4.547-.287c1.97-2.008.455-4.017.455-4.017L188.16 68.365zM66.229 181.43l52.775 57.067s2.577 1.722 4.547-.286c1.97-2.009.455-4.017.455-4.017L66.229 181.43z"></path>
  </symbol>
  <symbol xmlns="http://www.w3.org/2000/svg" preserveAspectRatio="xMidYMid" viewBox="0 0 256 259" id="logo-three">
    <path d="M127.779 0C60.42 0 5.24 52.412 0 119.014l68.724 28.674a35.812 35.812 0 0120.426-6.366c.682 0 1.356.019 2.02.056l30.566-44.71v-.626c0-26.903 21.69-48.796 48.353-48.796 26.662 0 48.352 21.893 48.352 48.796 0 26.902-21.69 48.804-48.352 48.804-.37 0-.73-.009-1.098-.018l-43.593 31.377c.028.582.046 1.163.046 1.735 0 20.204-16.283 36.636-36.294 36.636-17.566 0-32.263-12.658-35.584-29.412L4.41 164.654c15.223 54.313 64.673 94.132 123.369 94.132 70.818 0 128.221-57.938 128.221-129.393C256 57.93 198.597 0 127.779 0zM80.352 196.332l-15.749-6.568c2.787 5.867 7.621 10.775 14.033 13.47 13.857 5.83 29.836-.803 35.612-14.799a27.555 27.555 0 00.046-21.035c-2.768-6.79-7.999-12.086-14.706-14.909-6.67-2.795-13.811-2.694-20.085-.304l16.275 6.79c10.222 4.3 15.056 16.145 10.794 26.46-4.253 10.314-15.998 15.195-26.22 10.895zm121.957-100.29c0-17.925-14.457-32.52-32.217-32.52-17.769 0-32.226 14.595-32.226 32.52 0 17.926 14.457 32.512 32.226 32.512 17.76 0 32.217-14.586 32.217-32.512zm-56.37-.055c0-13.488 10.84-24.42 24.2-24.42 13.368 0 24.208 10.932 24.208 24.42 0 13.488-10.84 24.421-24.209 24.421-13.359 0-24.2-10.933-24.2-24.42z"></path>
  </symbol>
  <symbol xmlns="http://www.w3.org/2000/svg" preserveAspectRatio="xMidYMid" viewBox="0 0 256 127" id="logo-four">
    <path d="M0 63.21c0-17.324 6.204-32.19 18.612-44.598C31.02 6.204 45.886 0 63.21 0c17.324 0 32.19 6.204 44.598 18.612l20.368 19.314 20.367-19.665C160.717 6.087 175.466 0 192.79 0c17.09 0 31.898 6.204 44.423 18.612C249.738 31.02 256 45.886 256 63.21c0 17.324-6.262 32.19-18.787 44.598-12.525 12.408-27.333 18.612-44.423 18.612-17.324 0-32.19-6.204-44.598-18.612l-20.016-19.314-20.72 19.665c-12.173 12.174-26.922 18.26-44.246 18.26s-32.19-6.203-44.598-18.611C6.204 95.4 0 80.534 0 63.21zm63.21-26.69c-7.258 0-13.52 2.634-18.788 7.901-5.267 5.268-7.9 11.53-7.9 18.788 0 7.491 2.574 13.812 7.725 18.963 5.15 5.15 11.471 7.725 18.963 7.725 7.491 0 13.812-2.575 18.963-7.725l19.314-18.963-19.314-18.612c-5.385-5.384-11.706-8.077-18.963-8.077zm148.543 45.652c5.15-5.15 7.726-11.472 7.726-18.963 0-7.492-2.575-13.813-7.726-18.963-5.15-5.15-11.413-7.726-18.787-7.726-7.375 0-13.637 2.575-18.788 7.726L154.513 63.21l19.314 18.612c5.15 5.15 11.472 7.784 18.963 7.9 7.492.118 13.813-2.399 18.963-7.55z"></path>
  </symbol>
  <symbol xmlns="http://www.w3.org/2000/svg" preserveAspectRatio="xMidYMid" viewBox="0 0 256 140" id="logo-five">
    <path d="M78.066 92.588c12.818 0 23.209-10.391 23.209-23.21 0-12.817-10.391-23.208-23.21-23.208-12.817 0-23.208 10.39-23.208 23.209 0 12.818 10.391 23.209 23.209 23.209zm-54.857 46.417c12.818 0 23.209-10.39 23.209-23.209 0-12.817-10.391-23.208-23.21-23.208C10.392 92.588 0 102.978 0 115.796c0 12.818 10.39 23.21 23.209 23.21zm209.582 0c12.818 0 23.209-10.39 23.209-23.209 0-12.817-10.39-23.208-23.209-23.208-12.818 0-23.209 10.39-23.209 23.208 0 12.818 10.391 23.21 23.21 23.21z"></path>
    <path d="M156.565 70.357c-.742-7.754-1.12-14.208-7.06-18.744-7.522-5.744-16.044-2.017-26.54-5.806C112.65 43.312 105 34.155 105 23.24 105 10.405 115.578 0 128.626 0c9.665 0 17.974 5.707 21.634 13.883 5.601 10.64 1.96 21.467 8.998 26.921 8.333 6.458 19.568 1.729 32.104 7.848a23.614 23.614 0 019.84 8.425A22.858 22.858 0 01205 69.718c0 10.915-7.65 20.073-17.964 22.568-10.497 3.789-19.019.062-26.541 5.806-8.46 6.46-3.931 17.267-10.826 28.682-3.913 7.518-11.867 12.663-21.043 12.663-13.048 0-23.626-10.405-23.626-23.24 0-9.323 5.582-17.364 13.638-21.066 12.536-6.12 23.77-1.39 32.104-7.848 4.807-3.726 5.823-9.473 5.823-16.926z"></path>
  </symbol>
  <symbol xmlns="http://www.w3.org/2000/svg" preserveAspectRatio="xMidYMid" viewBox="0 0 256 256" id="logo-six">
    <path d="M129.058.005C58.373-.585.589 56.252.005 126.942c-.249 29.737 9.7 57.16 26.531 79.027 6.584-6.478 11.127-10.946 11.88-11.682 3.386-3.323 12.334-3.247 12.334-3.247s8.784-8.632 17.807-17.521c9.028-8.885-6.264-24.424-6.264-24.424l-21.349-21.703c83.487-82.148 144.467-56.715 144.467-56.715s24.428 61.393-59.054 143.537l-21.353-21.706s-15.287-15.536-24.31-6.664c-9.037 8.893-17.816 17.526-17.816 17.526s-.059 8.951-3.454 12.283l-11.968 11.779c21.728 17.626 49.328 28.32 79.486 28.568 70.694.589 128.469-56.244 129.054-126.938C256.58 58.368 199.756.59 129.058.005z"></path>
  </symbol>
  <symbol xmlns="http://www.w3.org/2000/svg" preserveAspectRatio="xMidYMid" viewBox="0 0 256 315" id="logo-seven">
    <path d="M249.408 62.308c-4.359-14.935-11.258-27.047-20.593-36.309-9.345-9.29-21.224-15.935-35.667-19.955C178.697 2.016 161.415 0 141.295 0c-24.101 0-45.032 3.761-62.729 11.286-17.741 7.532-32.43 19.285-44.067 35.265-11.653 15.991-20.318 36.466-25.982 61.433C2.822 132.951 0 162.942 0 197.933c0 20.306 1.835 37.773 5.504 52.418 3.67 14.64 9.867 26.753 18.584 36.317 8.673 9.564 20.266 16.629 34.713 21.177 14.447 4.548 32.467 6.822 53.995 6.822 14.386 0 27.897-1.274 40.598-3.855 12.69-2.564 24.299-6.871 34.835-12.935 10.523-6.08 20.035-14.032 28.523-23.902 8.443-9.855 15.535-22.092 21.277-36.753 5.754-14.645 10.19-31.813 13.31-51.53 3.113-19.718 4.661-42.418 4.661-68.095 0-21.927-2.21-40.353-6.592-55.289"></path>
    <path d="M192.781 140.689H160.58l-40.994 32.027-40.894 99.217 114.089-131.244zM63.147 172.678h56.22l.219.038L170.058 49.69 63.147 172.678z"></path>
  </symbol>
  <symbol xmlns="http://www.w3.org/2000/svg" preserveAspectRatio="xMidYMid" viewBox="0 0 256 161" id="logo-eight">
    <path d="M82.425 0l-46.13 79.9L59.1 119.287 127.937.056 82.425 0zm92.456.113L150.873.084 70.591 139.135l12.03 20.777 92.456.113 46.13-79.899L174.881.113zM11.957 91.29C5.354 91.29 0 85.978 0 79.425c0-6.55 5.354-11.862 11.957-11.862 6.603 0 11.957 5.312 11.957 11.863 0 6.551-5.354 11.862-11.957 11.862zm232.087 0c-6.603 0-11.957-5.312-11.957-11.864 0-6.55 5.354-11.862 11.957-11.862 6.603 0 11.957 5.312 11.957 11.863 0 6.551-5.354 11.862-11.957 11.862z"></path>
  </symbol>
</svg>